<?xml version="1.0" encoding="utf-8"?>
<!-- Generator: Adobe Illustrator 27.5.0, SVG Export Plug-In . SVG Version: 6.00 Build 0)  -->
<svg version="1.1" xmlns="http://www.w3.org/2000/svg" xmlns:xlink="http://www.w3.org/1999/xlink" x="0px" y="0px"
	 viewBox="0 0 500 500" style="enable-background:new 0 0 500 500;" xml:space="preserve">
<g id="BACKGROUND">
	<rect style="fill:#FFFFFF;" width="500" height="500"/>
</g>
<g id="OBJECTS">
	<path style="fill:#FFE183;" d="M324.803,417.604c-6.961,4.739-16.446,1.509-23.798-2.596c-7.352-4.105-15.208-9.174-23.491-7.66
		c-4.806,0.878-8.898,3.88-13.158,6.271c-4.26,2.392-9.353,4.251-13.961,2.627c-2.323-0.819-4.269-2.448-6.495-3.501
		c-7.404-3.504-17.431,1.011-19.715,8.878c-2.771,9.544,5.02,19.107,13.727,23.899c3.766,2.073,8.048,3.684,12.295,3.016
		c4.973-0.782,8.89-4.471,13.152-7.152c4.261-2.681,10.206-4.28,14.057-1.038c2,1.684,2.955,4.325,4.82,6.157
		c3.911,3.842,10.273,3.003,15.641,1.89c5.891-1.221,11.929-2.511,16.99-5.764c5.061-3.253,9.009-8.947,8.44-14.936"/>
	<path style="fill:#FFE183;" d="M277.003,448.284c-1.148-0.796-2.227-1.703-3.47-2.34c-1.557-0.798-3.343-1.14-5.085-0.975
		c-0.351,0.033-0.708,0.089-1.022,0.248c-0.374,0.189-0.663,0.513-0.895,0.862c-1.417,2.131-0.729,5.166,1.004,7.049
		c1.733,1.883,4.261,2.818,6.754,3.396c3.325,0.771,18.653,2.48,19.643-2.409c0.638-3.153-4.738-1.867-6.393-2.029
		C283.784,451.721,280.109,450.437,277.003,448.284z"/>
	<path style="fill:#E8E7E6;" d="M178.563,61.988c0.933-1.391,1.993-2.649,3.128-3.827c-0.429-0.01-0.816-0.104-1.16-0.262
		c-0.887-0.137-1.783-0.328-2.69-0.581c-1.783,3.366-2.478,7.422-2.437,11.541C176.028,66.524,177.067,64.218,178.563,61.988z"/>
	<path style="fill:#E8E7E6;" d="M246.21,190.935c-9.719-8.438-20.228-17.711-22.563-30.368c-0.962-5.21-0.42-10.566,0.125-15.836
		c0.929-8.991,1.858-17.982,2.787-26.974c0.177-1.716,0.395-3.536,1.469-4.886c2.24-2.817,6.568-2.066,10.167-2.111
		c3.599-0.045,8.09-3.19,6.281-6.302c-0.573-0.986-1.649-1.567-2.725-1.943c-5.941-2.077-12.327,0.712-18.349,2.542
		c-0.898,0.273-1.862,0.525-2.762,0.258c-1.104-0.328-1.834-1.347-2.478-2.3c-5.001-7.4-10.238-15.816-8.681-24.611
		c1.659-9.37,10.323-15.552,16.157-23.069c1.077-1.387,2.095-2.907,2.368-4.641c0.681-4.315-3.712-8.079-8.067-8.423
		c-4.355-0.344-8.505,1.692-12.398,3.673c-0.754,0.384-1.526,0.687-2.306,0.957c-2.874,3.217-6.16,6.06-9.794,8.083
		c-4.416,3.077-9.246,6.153-12.157,10.738c-3.526,5.554-3.486,11.843-0.28,17.476c3.612,6.346,9.431,10.9,14.549,16.014
		c0.036,0.119,0.08,0.235,0.114,0.355c0.998,3.573,0.836,7.326,0.542,10.987c-0.3,3.741-0.79,7.492-0.592,11.252
		c0.208,3.95,1.328,7.577,2.962,11.156c1.542,3.378,3.358,6.618,4.672,10.099c1.258,3.332,2.216,6.801,2.857,10.304
		c0.649,3.549,0.857,7.198,0.583,10.804c-1.762,4.577-4.502,8.814-8.54,12.74c-8.638,8.398-20.083,14.016-30.505,19.839
		c-12.037,6.724-24.801,12.611-35.37,21.619c-11.047,9.415-18.464,22.985-25.44,35.528c-7.291,13.109-11.985,26.748-17.419,40.625
		c-3.694,9.433-8.129,18.628-10.574,28.502c-0.961,3.88-2.259,9.317-0.422,13.157c1.841,3.848,7.32,4.201,11.063,4.29
		c11.277,0.268,22.673-3.378,33.474-6.185c6.839-1.777,14.324-4.174,21.677-4.729c0.158,0.104,0.341,0.186,0.576,0.202
		c2.69,0.177,5.383,0.382,8.074,0.53c2.345,4.517,1.68,9.715,0.573,14.542c-1.326,5.783-2.929,11.399-3.396,17.344
		c-0.488,6.213-0.167,12.448-0.122,18.67c0.047,6.42-0.224,12.841-0.817,19.234c-0.593,6.389-1.517,12.743-2.759,19.038
		c-0.606,3.071-1.287,6.126-2.043,9.164c-0.61,2.451-1.324,4.878-1.761,7.369c-0.756,4.302-1.056,9.355,1.734,13.036
		c3.531,4.659,9.528,4.225,14.712,3.535c6.313-0.84,12.499-2.44,18.401-4.838c2.959-1.202,5.851-2.559,8.644-4.108
		c0.466-0.258,0.93-0.526,1.395-0.792c5.21-2.045,10.199-4.553,14.393-8.214c0.709-0.619,1.456-1.457,1.248-2.375
		c-0.164-0.726-0.865-1.181-1.507-1.558c-8.177-4.807-16.354-9.615-24.531-14.423c-2.015-1.184-4.085-2.418-5.483-4.29
		c-1.83-2.451-2.259-5.641-2.628-8.677c-1.469-12.091-4.483-21.716-3.95-33.884c0.194-4.425,0.388-8.85,0.582-13.274
		c0.085-1.944,0.199-3.985,1.228-5.637c2.993-4.806,10.336-2.742,15.359-0.132c-1.007-4.257-1.253-10.068,2.844-11.6
		c3.562-1.332,7.146,2.01,10.936,2.34c4.054,0.352,7.716-2.986,9.025-6.839c1.309-3.853,0.782-8.07,0.029-12.069
		c-1.39-7.385-3.501-14.634-6.292-21.611c-1.013-2.533-2.196-5.136-4.339-6.824c-1.986-1.564-4.563-2.151-7.071-2.467
		c-9.976-1.26-20.006,1.058-30.005,2.12c-11.69,1.242-23.562,0.758-35.113-1.431c3.887-5.291,8.503-10.046,13.674-14.09
		c2.426-1.897,5.028-3.693,6.755-6.243c2.186-3.228,2.707-7.255,3.783-11.003c3.06-10.656,11.26-19.707,21.562-23.801
		c-2.611-1.864-5.221-3.728-7.832-5.592c14.663-14.636,33.737-24.795,54.064-28.797c-0.335-2.518-0.67-5.036-1.004-7.554
		c8.322,2.78,16.643,5.561,24.965,8.341c3.31,1.106,7.569,1.967,9.778-0.734C253.121,198.726,249.558,193.841,246.21,190.935z"/>
	<path style="fill:#E8E7E6;" d="M299.49,266.161c2.213-1.803,2.815-4.907,2.996-7.756c0.181-2.849,0.127-5.852,1.511-8.349
		c1.384-2.496,4.883-4.098,7.165-2.383c1.116,0.838,1.655,2.228,2.043,3.568c1.406,4.854,1.521,10.077,0.33,14.988
		c-1.077,4.442-3.16,9.283-1.021,13.322c3.111,0.403,6.357-0.322,9.001-2.01c-2.986,4.481-2.244,10.763,0.832,15.183
		c3.076,4.42,8.076,7.178,13.236,8.716c2.6,0.775,6.043,2.65,4.952,5.135c-0.885,2.014-3.833,1.719-5.75,2.798
		c-2.438,1.372-2.784,4.895-1.695,7.472c1.089,2.577,3.195,4.56,4.848,6.818c4.916,6.716,5.541,16.306,1.539,23.604
		c-5.888-6.533-10.422-14.281-13.233-22.615c-1.897-5.623-3.461-12.111-8.579-15.115c-3.668-2.153-8.632-2.088-11.492-5.235
		c-2.428-2.672-2.545-6.895-5.046-9.498c-1.511-1.572-3.845-2.512-4.554-4.574c-0.98-2.848,1.348-7.079-1.334-8.452"/>
	<path d="M464.668,398.331c-4.043,0.588-8.052,1.458-12.065,2.225c-4.015,0.767-8.029,1.534-12.044,2.301
		c-8.029,1.534-16.057,3.073-24.085,4.615c-16.002,3.074-32.006,6.137-48.001,9.249c-7.919,1.541-15.843,3.065-23.733,4.75
		c0.599-0.88,0.947-1.887,0.646-2.991c-0.473-1.734-2.282-2.768-3.677-3.694c-1.611-1.069-3.284-2.042-5.003-2.925
		c-6.933-3.562-14.525-5.62-22.169-6.98c-8.071-1.436-16.27-2.165-24.43-2.888c-1.908-0.169-3.817-0.326-5.726-0.479
		c-0.082-0.175-0.165-0.349-0.247-0.524c-0.173-0.368-0.347-0.736-0.52-1.104c-0.293-0.622-0.681-1.267-0.892-1.924
		c-0.228-0.712,0.047-0.936,0.696-1.327c1.275-0.77,3.061-1.304,3.505-2.916c0.269-0.975-0.093-1.999-0.814-2.682
		c-0.747-0.707-1.76-0.996-2.547-1.636c-0.738-0.6-1.209-1.493-1.477-2.491c0.023-0.081,0.034-0.171,0.008-0.279
		c-0.217-0.897-0.291-1.791-0.274-2.685c0.043-0.749,0.159-1.463,0.328-2.068c0.047-0.168,0-0.312-0.089-0.422
		c0.471-3.052,1.411-6.102,0.676-9.188c-0.246-1.032-0.692-2.01-1.348-2.845c-0.657-0.835-1.684-1.409-2.207-2.341
		c-0.562-1.002-0.395-2.258-0.185-3.334c0.254-1.3,0.585-2.58,0.802-3.888c0.898-5.395,0.775-10.887,0.595-16.333
		c-0.09-2.723-0.183-5.447-0.135-8.171c0.023-1.302-0.002-2.657,0.364-3.919c0.334-1.15,1.104-2.043,1.911-2.897
		c3.234-3.421,6.061-7.128,8.265-11.3c2.206-4.173,3.833-8.668,4.772-13.294c0.962-4.739,1.049-9.42,0.808-14.229
		c-0.128-2.553-0.144-5.192,1.016-7.538c0.041-0.083,0.086-0.164,0.128-0.246c0.03,0.542,0.124,1.08,0.33,1.605
		c0.65,1.661,2.006,2.984,3.157,4.308c1.289,1.484,2.583,2.964,3.875,4.446c0.426,0.488,0.963,0.489,1.387,0.243
		c-1.533,1.828-3.038,3.678-4.489,5.573c-0.413,0.54,0.01,1.513,0.662,1.626c3.926,0.682,7.496-1.409,10.175-4.121
		c0.081-0.083,0.157-0.171,0.238-0.255c-2.38,3.697-4.702,7.431-6.945,11.211c-0.425,0.717-1.212,1.569-0.846,2.431
		c0.272,0.643,0.847,1.17,1.461,1.48c1.333,0.672,2.886,0.537,4.178-0.158c1.572-0.846,2.682-2.371,3.814-3.703
		c0.271-0.319,0.54-0.639,0.811-0.959c-1.247,2.374-1.921,4.969-1.446,8.016c0.047,0.298,0.36,0.573,0.641,0.641
		c3.201,0.775,5.726-1.871,7.777-4.289c-0.569,0.892-1.049,1.835-1.153,2.911c-0.113,1.169,0.363,2.396,1.285,3.137
		c0.915,0.735,2.008,0.745,3.01,0.296c0.159,1.478,0.677,2.957,1.038,4.398c0.362,1.444,0.725,2.887,1.085,4.331
		c0.426,1.71,0.88,3.415,1.314,5.125c-0.463,2.933-0.531,5.932-0.17,8.924c0.775,6.432,3.341,13.315,8.435,17.574
		c2.418,2.021,5.478,3.525,8.707,3.238c3.419-0.304,6.159-2.365,8.535-4.695c2.818-2.764,5.467-5.73,7.993-8.761
		c2.297-2.756,4.938-5.626,5.782-9.217c0.964-4.104-0.293-8.337-1.833-12.129c-1.656-4.077-3.712-8.019-6.124-11.7
		c-0.478-0.729-1.341-0.676-1.865-0.255c-0.176-0.887-0.267-1.774-0.015-2.687c0.357-1.294,0.853-2.479,0.993-3.83
		c0.134-1.296,0.016-2.587-0.339-3.807c-0.468-2.703-2.648-4.905-5.337-5.536c-0.743-3.981-3.527-7.018-5.583-10.421
		c-1.007-1.668-1.845-3.497-1.849-5.481c-0.003-1.181,0.226-2.401-0.135-3.555c-0.155-0.496-0.398-0.907-0.704-1.254
		c0.004-0.044,0.013-0.086,0.013-0.134c-0.017-8.589-4.33-16.245-8.61-23.413c-4.631-7.754-8.845-15.65-12.112-24.086
		c-1.697-4.381-3.172-8.853-4.395-13.39c0.109,0.01,0.219,0.017,0.327,0.03c1.202,0.146,1.73-1.832,0.628-2.316
		c-7.466-3.279-14.217-7.89-20.028-13.606c-5.26-5.175-9.911-10.969-15.496-15.812c-3.128-2.712-6.51-5.007-10.285-6.722
		c-0.642-0.291-1.34,0.053-1.379,0.792c-0.049,0.914-0.141,1.824-0.253,2.731c-0.331-0.52-0.745-0.993-1.238-1.406
		c1.387-1.944,2.861-3.825,4.193-5.808c1.511-2.25,2.84-4.696,3.44-7.359c0.58-2.574,0.447-5.201,0.07-7.792
		c-0.743-5.093-2.757-10.548-1.648-15.714c0.147-0.034,0.295-0.066,0.442-0.101c0.359-0.084,0.725-0.163,1.086-0.252
		c0.555,0.849,2.143,0.687,2.022-0.52c-0.009-0.085-0.016-0.17-0.025-0.255c0.537-0.356,0.967-0.857,1.206-1.607
		c0.239-0.75,0.217-1.569,0.205-2.346c-0.019-1.152-0.041-2.304-0.061-3.456c-0.039-2.199-0.077-4.398-0.116-6.598
		c-0.078-4.399-0.157-8.797-0.235-13.195c-0.039-2.199-0.079-4.398-0.118-6.598c-0.03-1.676,0.117-3.616-1.005-5.002
		c-0.778-0.962-1.85-1.241-2.972-1.259c-0.1-2.51-0.148-5.022-0.096-7.531c0.096-4.626,0.599-9.282,2.138-13.669
		c0.743-2.119,1.761-4.12,3.018-5.982c1.314-1.946,2.763-3.789,3.601-6.008c1.349-3.573,0.187-8.293-3.864-9.35
		c-0.679-0.177-1.876-0.214-2.306-0.855c-0.506-0.754-0.002-2.099,0.142-2.909c0.408-2.286,0.699-4.613,0.669-6.939
		c-0.056-4.304-1.342-8.613-4.498-11.668c-5.576-5.396-14.458-5.556-21.613-4.12c-9.606,1.928-18.543,6.176-27.789,9.273
		c-4.587,1.537-9.279,2.801-14.09,3.382c-4.656,0.563-9.483,0.762-13.807,2.762c-3.763,1.74-6.34,5.018-9.515,7.558
		c-1.484,1.188-3.182,2.166-5.084,2.461c-2.431,0.376-4.906-0.193-7.333,0.33c-1.861,0.401-3.772,1.441-4.646,3.207
		c-1.15,2.326-0.27,5.024,0.32,7.384c1.268,5.071,2.871,10.059,4.797,14.919c1.756,4.432,3.573,9.123,6.684,12.804
		c1.549,1.832,3.502,3.183,5.52,4.448c1.901,1.192,3.906,2.354,5.35,4.109c1.274,1.548,2.123,3.599,1.479,5.587
		c-0.101,0.311-0.038,0.587,0.108,0.809c-1.296,0.359-2.452,1.03-3.173,2.23c-1.004,1.67-0.563,3.656-0.315,5.467
		c0.289,2.118,0.61,4.232,0.963,6.341c0.705,4.217,1.536,8.413,2.492,12.581c0.778,3.393,1.435,7.03,3.163,10.098
		c0.763,1.355,1.78,2.57,3.079,3.439c0.596,0.399,1.242,0.695,1.915,0.912c-0.246,0.477-0.42,1.003-0.554,1.517
		c-1.349,5.198,0.731,10.934,4.957,14.169c-1.719-0.854-3.562-1.611-5.494-1.58c-2.18,0.035-3.897,1.216-5.267,2.822
		c-1.348,1.581-2.569,3.235-4.054,4.699c-1.528,1.506-3.199,2.864-4.975,4.067c-7.571,5.125-16.356,7.745-25.012,10.387
		c-5.19,1.584-10.363,3.242-15.309,5.49c-1.158-0.331-2.396-0.245-3.651,0.431c-2.301,1.238-3.756,3.676-5.231,5.733
		c-1.802,2.512-3.601,5.026-5.402,7.539c-7.264,10.137-14.527,20.273-21.791,30.41c-6.946,9.693-14.064,19.286-20.06,29.611
		c-5.705,9.824-10.527,20.15-14.456,30.809c-0.495,1.344-0.975,2.694-1.441,4.048c-0.169,0.489,0.075,0.894,0.448,1.108
		c-1.963,1.13-3.805,2.468-5.408,4.066c-2.249,2.243-3.955,5.078-4.354,8.195c-1.569,1.393-2.455,3.458-2.894,5.528
		c-0.622,2.936-0.662,6.06-0.545,9.048c0.122,3.116,0.627,6.4,2.41,9.036c1.769,2.615,4.524,4.222,7.566,4.917
		c3.069,0.701,6.257,0.633,9.376,0.404c3.899-0.286,7.792-0.672,11.673-1.15c7.82-0.963,15.594-2.284,23.288-3.98
		c5.859-1.292,11.643-2.839,17.375-4.574c0.272,1.42,0.59,2.831,0.969,4.227c0.513,1.887,1.413,4.198,3.428,4.912
		c0.533,0.189,1.145,0.245,1.698,0.105c0.673-0.17,0.975-0.841,1.291-1.406c0.652-1.164,1.162-2.426,1.508-3.714
		c0.536-1.998,0.681-4.074,0.452-6.117c1.941-0.743,3.883-1.486,5.824-2.229c1.011-0.256,2.024-0.506,3.039-0.74
		c0.451,4.116,0.441,8.29,0.018,12.408c-2.418-0.296-4.926,0.719-6.577,2.518c-2.196,2.391-2.372,5.51-1.163,8.427
		c1.327,3.201,3.564,5.866,3.714,9.467c0.163,3.928-1.291,7.722-2.263,11.468c-3.991,15.379-2.572,31.374-2.497,47.073
		c0.042,8.808-0.343,17.664-2.355,26.27c-0.121,0.517,0.057,0.948,0.383,1.221c-6.454,0.413-12.919,0.667-19.386,0.759
		c-10.306,0.146-20.619-0.056-30.919,0.418c-10.146,0.467-20.338,1.596-30.134,4.375c-1.243,0.353-2.477,0.734-3.704,1.138
		c-1.309,0.431-1.045,2.282,0.321,2.369c10.489,0.67,21.014,0.649,31.508,0.117c10.499-0.532,20.97-1.633,31.386-3.039
		c8.449-1.141,16.852-2.537,25.242-4.027c1.582-0.118,3.163-0.243,4.743-0.382c10.613-0.931,21.188-2.291,31.686-4.107
		c10.441-1.806,20.807-4.057,31.085-6.631c1.304-0.327,2.606-0.661,3.906-1.004c0.547-0.144,0.811-0.631,0.83-1.125
		c3.751,5.161,7.519,10.31,11.336,15.423c2.417,3.239,4.738,6.74,8.077,9.113c3.312,2.354,7.403,3.283,11.331,4.01
		c8.674,1.605,17.524,2.016,26.328,1.699c4.471-0.161,8.934-0.505,13.384-0.965c4.251-0.439,8.545-0.868,12.749-1.652
		c3.918-0.731,7.658-2.057,10.744-4.646c3.095-2.596,5.636-5.959,8.149-9.099c5.136-6.418,9.831-13.183,14.013-20.259
		c0.681-1.153,1.346-2.314,1.998-3.483c16.658-2.734,33.259-5.854,49.838-9.025c17.593-3.365,35.148-6.934,52.646-10.763
		c4.906-1.074,9.813-2.147,14.716-3.236c3.376-0.75,7.279-1.891,9.082-5.127C466.477,399.058,465.614,398.194,464.668,398.331z
		 M96.457,455.763c-9.288,0.56-18.597,0.717-27.893,0.391c7.527-1.832,15.251-2.779,22.99-3.248
		c10.242-0.62,20.507-0.465,30.762-0.548c3.168-0.026,6.334-0.09,9.5-0.186C120.075,453.788,108.288,455.05,96.457,455.763z
		 M265.676,435.653c0.351,1.246,0.577,2.519,0.642,3.813c0.069,1.376,0.031,2.926-0.955,3.999c-0.909,0.989-2.295,1.453-3.534,1.869
		c-1.545,0.518-3.149,0.94-4.777,1.086c-2.954,0.264-5.723-0.394-8.197-2.029c-2.253-1.489-4.101-3.582-5.693-5.742
		c-1.75-2.375-3.343-4.891-4.823-7.441c-0.005-0.009-0.01-0.018-0.016-0.027c0.399,0.06,0.797,0.122,1.196,0.181
		c8.508,1.252,17.064,2.169,25.643,2.754C265.354,434.62,265.529,435.132,265.676,435.653z M230.111,414.968
		c-1.041-2.259-2.073-4.524-3.116-6.783c0.363-0.151,0.728-0.297,1.096-0.433c1.548-0.572,3.145-1.015,4.768-1.314
		c0.7-0.129,1.409-0.232,2.118-0.309c0.021,0.025,0.041,0.049,0.061,0.074c2.204,2.671,4.436,5.319,6.659,7.974
		c1.995,2.381,4.149,4.316,6.973,5.659c2.603,1.238,5.322,2.174,7.755,3.752c2.184,1.417,4.14,3.199,5.746,5.249
		c0.719,0.918,1.358,1.897,1.912,2.921c-9.117-0.66-18.207-1.702-27.217-3.171C234.427,424.146,232.23,419.567,230.111,414.968z
		 M234.412,428.185c-3.472-0.61-6.928-1.352-10.288-2.424c-1.837-0.586-3.643-1.271-5.385-2.101
		c-1.381-0.658-3.009-1.398-3.896-2.709c-1.046-1.546-0.042-3.15,0.969-4.422c1.026-1.291,2.186-2.481,3.43-3.563
		c1.834-1.595,3.91-2.951,6.108-4.03c0.838,1.821,1.67,3.645,2.499,5.47C229.955,419.038,232.063,423.672,234.412,428.185z
		 M204.867,355.747c0.219,5.573,0.526,11.137,0.936,16.698c0.057,0.768,0.096,1.553,0.152,2.339c-0.764-1.5-1.53-2.999-2.305-4.494
		c-1.911-3.685-3.789-7.391-5.901-10.965c1.167-0.75,2.053-1.938,2.678-3.187c1.187-2.375,2.024-4.966,2.914-7.462
		c0.516-1.449,1.009-2.906,1.489-4.367c0.045,1.052,0.081,2.104,0.08,3.159C204.905,350.233,204.758,352.981,204.867,355.747z
		 M214.913,380.984c0.051-0.731,0.101-1.462,0.151-2.194c0.09-1.339,0.165-2.678,0.248-4.018c1.855,5.304,3.867,10.601,6.931,15.331
		c1.822,2.812,3.967,5.401,6.097,7.982c1.233,1.494,2.467,2.989,3.7,4.483c-2.24,0.642-4.437,1.426-6.566,2.359
		c-1.02-2.163-2.058-4.317-3.149-6.445c-1.401-2.733-2.882-5.425-4.493-8.04c-0.782-1.269-1.592-2.521-2.435-3.75
		c-0.793-1.156-1.576-2.381-2.623-3.328c-0.053-0.048-0.111-0.089-0.165-0.136c0.622-0.084,1.231-0.291,1.72-0.673
		C214.87,382.13,214.867,381.632,214.913,380.984z M266.565,431.939c-2.188-4.626-5.906-8.503-10.332-11.048
		c-2.64-1.518-5.599-2.386-8.21-3.956c-0.076-0.046-0.145-0.1-0.22-0.147c0.454-0.008,0.914-0.083,1.368-0.172
		c8.177-1.591,16.046-4.404,24.164-6.24c7.716-1.745,15.902-2.618,23.646-0.546c3.78,1.011,7.311,2.741,11.03,3.935
		c3.723,1.195,7.587,1.576,11.48,1.666c4.357,0.101,8.782-0.144,13.1,0.56c1.942,0.317,4.005,0.738,5.76,1.661
		c1.15,0.605,2.324,1.418,2.842,2.609c-0.6,1.189-1.211,2.373-1.837,3.548c-2.406,1.68-5.051,3.028-7.788,4.067
		c-6.534,2.48-13.519,3.454-20.453,3.98c-8.254,0.625-16.55,0.835-24.826,0.782C279.715,432.597,273.135,432.365,266.565,431.939z
		 M297.237,405.02c7.446,0.697,14.905,1.495,22.219,3.105c7.123,1.567,14.142,3.937,20.395,7.747
		c0.754,0.459,1.499,0.935,2.224,1.438c0.507,0.352,1.154,0.798,1.434,1.393c-0.153,0.229-0.305,0.458-0.458,0.687
		c-0.133-0.091-0.278-0.157-0.429-0.193c-0.818-2.106-3.193-3.542-5.242-4.294c-3.616-1.327-7.525-1.634-11.347-1.742
		c-3.925-0.111-7.863,0.044-11.771-0.423c-3.887-0.464-7.486-1.882-11.107-3.292c-3.718-1.449-7.444-2.549-11.425-2.968
		c-3.979-0.419-7.993-0.224-11.952,0.305c-8.143,1.089-15.984,3.641-23.888,5.785c-2.237,0.607-4.486,1.174-6.754,1.657
		c-0.451,0.096-1.049,0.33-1.516,0.24c-0.38-0.073-0.592-0.397-0.804-0.696c-0.559-0.791-1.103-1.555-1.806-2.229
		c-2.494-2.39-6.518-4.139-6.686-7.962c10.893-1.954,22.398-1.149,33.311-0.499C280.18,403.588,288.716,404.223,297.237,405.02z
		 M329.295,324.625c-0.293-1.462-0.604-2.918-0.94-4.371c-0.338-1.46-0.583-3.02-1.167-4.402c-0.066-0.156-0.171-0.269-0.297-0.344
		c2.47-1.557,4.849-3.306,7.264-4.935c0.528-0.357,1.056-0.715,1.584-1.072c-0.224,0.616-0.354,1.276-0.435,1.944
		c-0.447,3.721-0.736,7.473-0.945,11.215c-0.027,0.491,0.396,1.089,0.897,1.178c1.085,0.194,2.188,0.245,3.289,0.195
		c-2.71,1.512-4.809,4.008-5.982,6.881c-0.436-3.569,0.068-7.269,1.603-10.513c0.516-1.09-1.056-2.05-1.641-0.959
		c-1.225,2.285-2.186,4.688-2.864,7.161C329.546,325.943,329.427,325.284,329.295,324.625z M358.893,315.985
		c1.631,2.654,3.145,5.376,4.461,8.202c1.429,3.069,2.945,6.344,3.086,9.782c0.144,3.517-1.672,6.402-3.872,8.986
		c-2.367,2.779-4.843,5.478-7.369,8.112c-2.128,2.219-4.365,4.863-7.3,6.021c-2.696,1.063-5.524,0.412-7.9-1.109
		c-5.094-3.259-7.839-9.481-8.948-15.218c-0.414-2.14-0.585-4.345-0.539-6.551c0.137-0.078,0.248-0.203,0.284-0.372
		c0.199,0.822,0.447,1.638,0.757,2.442c0.441,1.147,2.217,1.056,2.233-0.302c0.04-3.368,1.59-6.42,4.081-8.519
		c-0.376,3.671,0.213,7.392,1.711,10.799c0.463,1.054,1.017,2.067,1.66,3.022c0.603,0.895,1.283,1.844,2.256,2.367
		c2.396,1.286,4.24-0.756,5.554-2.516C354.405,333.956,360.224,325.347,358.893,315.985z M351.843,298.433
		c0.061,0.442,0.554,0.688,0.943,0.718c2.631,0.203,4.723,2.711,4.698,5.297c-0.002,0.164,0.045,0.291,0.109,0.402
		c0.004,0.446-0.015,0.892-0.069,1.334c-0.27,2.19-1.6,4.048-1.389,6.314c0.107,1.146,0.429,2.255,0.598,3.391
		c0.153,1.023,0.195,2.066,0.16,3.099c-0.071,2.061-0.505,4.095-1.154,6.049c-1.366,4.11-3.708,7.848-6.193,11.366
		c-0.63,0.892-1.276,1.774-1.931,2.649c-0.569,0.761-1.127,1.698-1.898,2.277c-1.457,1.093-2.835-1.971-3.346-2.933
		c-2.13-4.013-2.715-8.796-1.634-13.203c0.14-0.57-0.114-1.056-0.521-1.319c1.899-0.28,3.759-0.868,5.466-1.701
		c1.587-0.774,3.062-1.803,4.355-3.005c1.335-1.242,2.23-2.669,3.106-4.246c0.671-1.208-1.181-2.292-1.853-1.083
		c-0.741,1.333-1.897,2.543-3.006,3.577c-1.115,1.04-2.385,1.892-3.748,2.572c-2.449,1.22-5.036,1.653-7.706,1.539
		c0.069-2.884,0.183-5.773,0.438-8.645c0.109-1.232,0.066-2.898,1.136-3.748c0.785-0.625,1.897-0.646,2.85-0.583
		c2.213,0.146,4.267,1.05,6.52,0.805c2.102-0.229,4.214-1.329,4.46-3.647c0.271-2.544-2.176-4.532-4.521-4.763
		c-2.92-0.288-5.495,1.697-7.768,3.239c-2.746,1.862-5.492,3.725-8.237,5.587l-4.119,2.794c-0.643,0.436-1.287,0.873-1.93,1.31
		c-0.44,0.298-1.145,0.97-1.729,0.786c-0.484-0.152-0.76-0.792-0.801-1.252c-0.067-0.764,0.364-1.526,0.746-2.151
		c0.948-1.55,2.053-3.018,3.082-4.515c2.137-3.106,4.273-6.211,6.41-9.317c0.625-0.909-0.801-2.016-1.534-1.184
		c-2.838,3.224-5.677,6.447-8.514,9.672c-1.323,1.505-2.596,3.071-3.984,4.516c-0.976,1.016-2.27,2.211-3.751,2.188
		c-0.42-4.307,2.323-8.302,4.961-11.453c2.775-3.313,5.856-6.469,7.341-10.617c0.304-0.849-0.916-1.525-1.506-0.876
		c-3.568,3.921-6.93,8.034-10.363,12.074c-1.604,1.888-3.129,3.897-4.852,5.677c-0.91,0.94-2.989,2.263-4.083,1.049
		c4.279-7.317,8.817-14.471,13.675-21.418c0.575-0.822-0.556-1.91-1.372-1.372c-2.989,1.971-5.018,4.894-7.39,7.507
		c-1.81,1.994-4.277,4.091-7.046,4.453c2.848-3.58,5.823-7.059,8.952-10.396c3.647-3.89,7.458-7.739,11.56-11.152
		c0.939-0.781,1.957-1.353,3.197-1.425c1.314-0.077,2.661,0.066,3.966,0.212c2.697,0.3,5.364,0.904,7.942,1.747
		c0.599,0.196,1.194,0.405,1.783,0.628c0.516,0.196,1.164,0.4,1.485,0.881c0.555,0.83,0.23,2.159,0.21,3.088
		c-0.043,1.982,0.578,3.868,1.497,5.604C347.59,290.69,351.224,293.929,351.843,298.433z M340.207,306.485
		c0.751-0.505,1.5-1.013,2.254-1.513c1.97-1.306,4.986-3.101,7.06-0.982c0.675,0.69,0.897,1.713,0.194,2.466
		c-0.596,0.637-1.598,0.818-2.429,0.863c-2.265,0.122-4.404-0.839-6.669-0.845C340.48,306.474,340.344,306.478,340.207,306.485z
		 M273.351,183.457c-0.326,1.687-0.763,3.351-1.295,4.984c-0.346,0.721-0.723,1.398-1.089,1.995
		c-1.328,2.166-3.025,4.101-4.599,6.088c-1.815,2.291-3.664,4.555-5.502,6.828c-2.052,2.536-4.111,5.067-6.138,7.623
		c-4.378-1.62-9.061-2.597-13.526-3.786c-5.772-1.537-11.595-3.144-17.032-5.656c-2.615-1.208-5.159-2.614-7.501-4.296
		c-2.319-1.665-4.505-3.788-5.357-6.59c-1.465-4.818,0.759-9.926,1.727-14.694c1.088,1.996,2.406,3.886,3.643,5.777
		c3.21,4.905,6.596,9.82,10.888,13.854c3.707,3.485,8.166,6.52,13.118,7.882c-0.003,0.356,0.162,0.705,0.568,0.916
		c2.661,1.381,5.897,1.099,8.722,0.411c2.826-0.688,5.655-1.803,8.264-3.086c2.527-1.242,4.298-3.09,5.465-5.647
		c1.204-2.636,2.191-5.348,3.504-7.938c1.361-2.684,2.893-5.281,4.588-7.768c0.06-0.088,0.124-0.173,0.184-0.26
		C272.93,181.049,273.32,182.217,273.351,183.457z M268.596,196.302c-1.9,3.345-4.25,6.435-6.985,9.148
		c-0.031,0.03-0.063,0.058-0.094,0.089c2.087-2.752,4.172-5.506,6.292-8.234C268.066,196.973,268.33,196.638,268.596,196.302z
		 M276.672,147.561c0.128,2.539,0.657,5.039,1.137,7.529c0.475,2.463,0.923,4.952,0.868,7.47c-0.057,2.627-0.824,5.079-2.096,7.367
		c-1.28,2.304-2.913,4.384-4.498,6.481c-1.728,2.285-3.346,4.645-4.802,7.113c-1.456,2.468-2.76,5.025-3.902,7.654
		c-1.009,2.322-1.745,5.06-3.62,6.864c-1.039,0.999-2.389,1.614-3.713,2.14c-1.482,0.589-2.98,1.154-4.499,1.64
		c-1.52,0.486-3.089,0.9-4.686,1.016c-1.047,0.076-2.042-0.007-3.036-0.183c-0.057-0.032-0.107-0.069-0.179-0.09
		c-5.543-1.619-10.397-4.709-14.48-8.759c-4.457-4.42-7.939-9.644-11.329-14.893c-1.662-2.573-3.538-5.178-4.273-8.198
		c-0.038-0.158-0.069-0.318-0.101-0.478c-0.044-0.583-0.119-1.164-0.232-1.739c-0.014-0.192-0.028-0.384-0.037-0.576
		c0.024-0.151,0.02-0.304-0.016-0.454c-0.056-2.219,0.203-4.475,0.186-6.665c-0.013-1.643-0.093-3.292-0.278-4.926
		c-0.114-1.011-0.3-2.054-0.772-2.955c1.126-0.082,2.251-0.197,3.368-0.291c2.143-0.181,4.284-0.381,6.424-0.596
		c4.229-0.425,8.452-0.911,12.667-1.459c8.481-1.102,16.93-2.441,25.333-4.03c4.226-0.799,8.44-1.66,12.64-2.583
		c1.453-0.319,2.903-0.656,4.353-0.99C276.728,144.456,276.593,145.986,276.672,147.561z M279.612,103.784
		c1.472,0.366,1.146,2.808,1.165,3.921c0.14,8.033,0.279,16.067,0.42,24.1c-0.693-7.596-1.303-15.203-1.767-22.811
		c-0.107-1.755-0.212-3.513-0.301-5.272C279.293,103.731,279.456,103.745,279.612,103.784z M201.573,142.015
		c-2.028-7.82-3.53-15.802-4.606-23.807c-0.176-1.313-0.575-2.993,0.651-3.922c0.964-0.73,2.325-0.864,3.492-0.903
		c2.666-0.089,5.454,0.424,7.866-1.071c1.08-0.669,1.888-1.704,2.063-2.982c0.093-0.675-0.254-1.225-0.971-1.275
		c-3.304-0.234-6.499,0.218-9.597,1.248c0.138-3.657-2.667-6.898-5.587-8.923c-1.906-1.322-4.004-2.403-5.746-3.95
		c-1.695-1.505-2.97-3.38-4.035-5.368c-2.312-4.315-4.092-8.966-5.667-13.594c-0.81-2.381-1.545-4.788-2.202-7.216
		c-0.335-1.238-0.65-2.481-0.945-3.729c-0.264-1.119-0.641-2.359-0.358-3.51c0.431-1.754,2.446-2.494,4.056-2.687
		c2.422-0.29,4.869,0.173,7.267-0.433c3.862-0.976,6.624-4.069,9.438-6.672c1.466-1.355,3.004-2.589,4.815-3.457
		c2.052-0.983,4.328-1.479,6.565-1.821c2.297-0.351,4.62-0.502,6.924-0.79c2.34-0.292,4.657-0.717,6.949-1.274
		c9.371-2.277,18.135-6.428,27.33-9.263c7.21-2.223,15.843-4.208,23.068-0.902c3.473,1.59,6.005,4.416,6.985,8.139
		c0.551,2.093,0.623,4.273,0.486,6.424c-0.071,1.109-0.201,2.212-0.378,3.309c-0.18,1.117-0.477,2.234-0.55,3.366
		c-0.071,1.109,0.228,2.264,1.067,3.037c0.712,0.656,1.647,0.925,2.567,1.137c0.809,0.187,1.565,0.357,2.16,0.971
		c0.537,0.553,0.819,1.283,0.977,2.026c0.398,1.882-0.327,3.682-1.278,5.275c-1.15,1.925-2.594,3.654-3.686,5.618
		c-4.486,8.068-4.53,17.678-4.149,26.654c-1.8,0.245-3.594,0.525-5.382,0.848c-8.072,1.462-16.004,3.622-24.018,5.365
		c-7.766,1.688-15.662,2.75-23.624,2.491c-2.043-0.067-4.082-0.235-6.105-0.535c-0.712-0.105-1.045,0.934-0.306,1.111
		c3.705,0.887,7.575,1.458,11.39,1.437c3.816-0.021,7.62-0.387,11.395-0.932c7.765-1.12,15.366-3.08,23.009-4.808
		c3.802-0.859,7.621-1.672,11.467-2.312c0.76-0.126,1.522-0.239,2.284-0.35c0.488,9.978,1.373,19.929,2.46,29.859
		c0.227,2.071,0.437,4.144,0.648,6.217c-0.34,0.085-0.682,0.164-1.025,0.244c-0.262-0.134-0.596-0.111-0.757,0.176
		c-0.345,0.078-0.691,0.156-1.036,0.235c-3.993,0.915-7.999,1.774-12.016,2.577c-8.034,1.606-16.114,2.985-24.225,4.138
		c-8.109,1.153-16.25,2.059-24.41,2.76c-1.998,0.172-4.008,0.396-6.014,0.437c-1.672,0.034-3.353-0.155-4.753-1.146
		C203.177,147.819,202.259,144.663,201.573,142.015z M201.396,111.077c2.268-0.845,4.728-1.208,7.144-1.118
		c-1.251,1.424-4.145,1.282-5.806,1.168C202.306,111.098,201.856,111.08,201.396,111.077z M207.908,155.298
		c0.15-0.726,0.348-2.429,1.427-2.044c1.025,0.366,1.179,1.823,1.275,2.741c0.322,3.047,0.255,6.075,0.137,9.128
		C208.354,162.531,207.192,158.762,207.908,155.298z M93.958,273.136c5.467-9.929,11.976-19.129,18.58-28.32
		c7.002-9.745,13.987-19.501,20.98-29.253c3.512-4.897,7.027-9.791,10.535-14.691c1.201-1.677,2.725-4.376,4.975-4.752
		c0.48-0.08,0.921,0.007,1.33,0.184c1.386,1.211,2.71,2.489,3.962,3.832c6.091,7.446,9.46,17.083,9.254,26.703
		c-0.025,1.178-0.106,2.353-0.231,3.525c-0.077,0.724,0.943,1.332,1.532,0.879c4.262-3.279,3.902-9.189,2.402-13.82
		c-1.829-5.642-4.928-10.95-8.58-15.596c-0.789-1.004-1.625-1.967-2.485-2.909c-0.853-1.073-1.757-2.106-2.724-3.064
		c-0.148-0.146-0.299-0.283-0.453-0.415c15.579-6.682,34.555-8.102,46.041-21.895c1.353-1.625,2.428-3.789,4.313-4.878
		c2.36-1.363,5.238-0.149,7.503,0.878c0.165,1.321,0.464,2.617,0.954,3.897c-0.461,2.886-1.512,5.742-2.209,8.517
		c-1.089,4.334-1.364,8.958,1.342,12.782c2.803,3.96,7.391,6.597,11.677,8.666c4.588,2.215,9.439,3.817,14.334,5.196
		c5.019,1.414,10.093,2.63,15.08,4.156c3.906,1.195,8.784,2.948,10.38,7.116c0.941,2.457,0.595,5.197,0.329,7.747
		c-0.297,2.854-0.538,5.712-0.695,8.577c-0.315,5.756-0.332,11.528-0.047,17.286c0.575,11.645,2.43,23.141,5.327,34.427
		c0.371,1.445,0.779,3.212,0.542,4.78c-0.15-0.425-0.331-0.839-0.561-1.236c-1.095-1.893-3.228-2.918-5.395-2.498
		c-0.863,0.167-1.669,0.603-2.221,1.294c-0.824,1.031-0.593,1.953-0.163,3.111c0.803,2.163,2.249,4.4,4.722,4.742
		c0.75,0.104,1.467,0.005,2.128-0.24c0.122,5.452-0.06,10.932-0.083,16.381c-0.013,3.054-0.026,6.108-0.039,9.162
		c-0.012,2.88,0.082,5.784-0.075,8.66c-0.027,0.501-0.078,1.018-0.158,1.533c-0.069-0.13-0.139-0.259-0.221-0.383
		c-2.425-3.665-8.888-2.402-9.215,2.154c-0.151,2.098,1.067,4.311,2.982,5.215c1.736,0.82,3.681,0.396,5.203-0.647
		c0.161,5.054,0.189,10.118,0.3,15.171c0.133,6.044,0.281,12.088,0.429,18.132c0.018,0.732,0.042,1.464,0.062,2.197
		c-2.88-1.237-6.787-0.255-9.556,0.874c-2.037,0.83-3.456,2.74-2.103,4.867c1.293,2.033,3.806,2.895,6.096,3.018
		c2.204,0.119,4.736-0.317,6.283-2.037c0.781-0.868,1.17-1.922,1.353-3.047c0.519-0.19,0.905-0.77,0.539-1.384
		c-0.122-0.204-0.258-0.385-0.395-0.564c0.006-1.198-0.098-2.405-0.122-3.498c-0.15-6.969-0.304-13.937-0.471-20.905
		c-0.086-3.555-0.171-7.111-0.257-10.666c-0.035-1.449-0.056-2.898-0.106-4.346c1.223-2.009,1.482-4.474,1.524-6.82
		c0.06-3.359,0.027-6.722,0.037-10.082c0.022-7.103,0.038-14.205,0.071-21.308c0.005-1.005,0.04-2.056,0.01-3.103
		c0.568-0.607,1.025-1.328,1.33-2.091c1.215-3.04-0.005-6.457-0.747-9.459c-3.235-13.091-4.837-26.565-4.787-40.049
		c0.013-3.431,0.132-6.862,0.36-10.286c0.212-3.188,0.658-6.36,0.846-9.547c0.17-2.894-0.197-5.857-1.936-8.263
		c-1.438-1.988-3.486-3.416-5.683-4.46c-0.265-0.126-0.538-0.234-0.806-0.353c8.475-5.864,14.695-14.998,17.362-24.919
		c0.671-2.497,1.099-5.056,1.314-7.632c6.083,3.101,10.971,8.148,15.54,13.124c2.508,2.732,4.943,5.532,7.546,8.176
		c2.793,2.837,5.784,5.456,9.005,7.799c2.578,1.875,5.291,3.553,8.108,5.038c-2.744,0.764-5.229,2.486-6.577,5.007
		c-1.935,3.617-1.355,8.612,1.9,11.287c0.527,0.433,1.479,0.502,1.829-0.236c1.832-3.871,3.659-7.745,5.485-11.619
		c2.222,7.734,5.04,15.276,8.55,22.528c1.938,4.003,4.093,7.885,6.371,11.704c2.16,3.619,4.368,7.223,6.165,11.04
		c1.779,3.779,3.072,7.803,3.305,11.979c-2.455-0.955-5.03-1.639-7.62-2.091c-1.431-0.25-2.876-0.433-4.325-0.541
		c-1.364-0.102-2.806-0.201-4.132,0.212c-1.248,0.389-2.29,1.177-3.271,2.015c-1.072,0.917-2.115,1.87-3.153,2.826
		c-2.071,1.907-4.092,3.868-6.061,5.881c-2.613,2.672-5.117,5.444-7.534,8.29c0.149-0.4,0.118-0.869-0.236-1.276
		c-0.497-0.57-0.994-1.141-1.491-1.711c0.171-0.449,0.322-0.91,0.468-1.368c1.579-0.949,2.23-3.063,2.856-4.673
		c1.922-4.94,3.552-9.984,4.937-15.1c0.784-2.896,1.46-5.816,2.12-8.743c0.178-0.789-0.929-1.079-1.201-0.331
		c-1.903,5.246-3.742,10.516-5.598,15.78c-0.919,2.607-1.839,5.214-2.758,7.82c-0.451,1.279-0.902,2.558-1.353,3.836
		c-0.073,0.208-0.15,0.415-0.228,0.624c-0.337,0.106-0.713,0.134-1.06,0.072c-0.974-1.11-2.123-2.187-2.898-3.448
		c-0.798-1.297-0.478-2.734-0.241-4.151c0.146-0.873,0.291-1.746,0.437-2.618c0.135-0.253,0.266-0.508,0.391-0.766
		c4.312-8.906,5.37-18.95,5.217-28.73c-0.019-1.216-0.061-2.429-0.126-3.643c-0.053-0.99-1.684-1.354-1.845-0.25
		c-1.001,6.901-2.424,13.759-3.699,20.614c-0.628,3.38-1.25,6.76-1.856,10.143c-0.145,0.81-0.29,1.621-0.435,2.431
		c-0.481,0.873-0.984,1.736-1.515,2.583c-1.414,2.255-2.38,4.472-2.591,7.152c-0.201,2.547,0.145,5.099,0.179,7.646
		c0.031,2.341-0.107,4.694-0.443,7.012c-1.343,9.273-5.427,18.152-11.773,25.066c-1.674,1.823-3.412,3.466-3.823,6.026
		c-0.424,2.644-0.264,5.429-0.196,8.095c0.14,5.479,0.576,10.967,0.176,16.445c-0.103,1.411-0.264,2.817-0.509,4.211
		c-0.212,1.204-0.531,2.387-0.693,3.599c-0.153,1.147-0.147,2.321,0.322,3.398c0.452,1.037,1.294,1.677,2.09,2.435
		c3.497,3.331,1.014,9.055,0.933,13.165c-0.196,0.55-0.329,1.122-0.376,1.737c-0.097,1.283,0.078,2.619,0.554,3.814
		c0.443,1.112,1.042,2.071,2.044,2.755c0.574,0.392,1.748,0.732,2.065,1.394c0.086,0.181,0.007,0.317-0.041,0.393
		c-0.073,0.115-0.325,0.316-0.523,0.445c-0.598,0.388-1.26,0.667-1.866,1.041c-0.641,0.396-1.256,0.887-1.595,1.575
		c-0.534,1.083-0.161,2.138,0.322,3.164c0.291,0.618,0.579,1.238,0.867,1.858c-6.358-0.485-12.722-0.881-19.092-1.162
		c-8.878-0.392-17.865-0.443-26.605,1.382c-0.531,0.111-1.061,0.231-1.589,0.356c-2.238-2.718-4.471-5.44-6.667-8.19
		c-2.096-2.626-4.02-5.37-5.59-8.345c-1.52-2.88-2.741-5.9-3.86-8.954c-0.563-1.535-1.1-3.079-1.638-4.623
		c-0.22-0.633-0.78-0.876-1.307-0.831c0.012-0.209,0.027-0.419,0.039-0.628c0.628-11.185,1.005-22.383,1.131-33.585
		c0.031-2.774,0.048-5.549,0.049-8.323c0.001-2.763,0.16-5.602-0.132-8.353c-0.272-2.564-1.319-4.774-2.748-6.892
		c-1.423-2.109-2.963-4.145-4.537-6.143c-3.101-3.937-6.453-7.676-10.03-11.186c-3.014-2.958-6.792-7.217-11.458-6.777
		c-0.612,0.058-1.19,0.218-1.734,0.462c-8.164,0.483-16.331,0.931-24.495,1.418c-2.93,0.175-5.862,0.335-8.795,0.496
		c0.602-2.638,1.203-5.277,1.805-7.915c0.79-3.463,1.756-6.97,1.175-10.542c-0.122-0.752-0.299-1.492-0.45-2.236
		c1.183-1.19,2.252-2.494,3.133-3.923c1.275-2.066,2.141-4.37,2.819-6.693c1.506-5.159,2.098-10.766,4.961-15.425
		c0.681-1.109-0.985-2.026-1.716-1.003c-3.871,5.416-7.109,11.274-9.658,17.423c-1.219,2.941-2.098,5.804-1.77,8.946
		c-3.36,3.119-7.452,5.357-11.375,7.677c-4.404,2.605-8.544,5.402-12.301,8.889c-1.814,1.684-3.636,3.427-5.721,4.78
		c-0.396,0.257-0.8,0.495-1.209,0.719c-0.76-0.229-1.568-0.347-2.326-0.375c-3.343-0.122-6.796,0.288-10.108,0.711
		c-6.887,0.879-13.669,2.493-20.199,4.859c-2.888,1.047-5.723,2.24-8.496,3.562C84.852,291.331,89.052,282.046,93.958,273.136z
		 M164.422,215.875c0.035,0.086,0.075,0.171,0.11,0.257c0.874,2.186,1.572,4.478,1.682,6.844c0.065,1.398-0.09,2.874-0.627,4.169
		C165.693,223.372,165.296,219.569,164.422,215.875z M266.319,295.431c-1.867,1.349-3.61-0.317-4.435-2.075
		c-0.204-0.434-0.428-0.937-0.528-1.408c-0.034-0.16-0.068-0.212-0.092-0.227c0.021-0.013,0.051-0.042,0.1-0.112
		c0.065-0.093,0.167-0.194,0.251-0.26c0.587-0.465,1.511-0.433,2.188-0.235C265.629,291.649,266.156,293.657,266.319,295.431z
		 M264.712,337.134c-0.403,0.533-0.906,0.992-1.54,1.333c-1.837,0.987-3.778,0.093-4.339-1.888c-0.507-1.79,0.662-3.329,2.498-3.43
		c2.437-0.134,3.287,1.815,3.381,3.953C264.712,337.113,264.712,337.124,264.712,337.134z M265.63,377.706
		c-0.017,1.137-0.159,2.312-0.997,3.156c-1.384,1.395-3.944,1.478-5.756,1.134c-1.142-0.216-4.84-2.021-2.849-3.417
		c0.75-0.526,1.82-0.783,2.688-1.041c1.01-0.301,2.046-0.538,3.097-0.623C263.182,376.804,264.587,376.921,265.63,377.706z
		 M317.135,215.781c-1.782,3.716-3.561,7.433-5.337,11.151c-1.478-2.131-1.591-5.103-0.257-7.386
		C312.755,217.469,314.856,216.245,317.135,215.781z M302.524,264.979c0.426-2.665,0.859-5.329,1.295-7.993
		C303.547,259.678,303.134,262.35,302.524,264.979z M135.58,292.555c-3.509,0.289-7.015,0.679-10.488,1.266
		c-0.201-0.294-0.457-0.541-0.736-0.763c1.528-0.831,2.955-1.938,4.286-3.103c1.795-1.571,3.49-3.254,5.36-4.737
		c2.11-1.672,4.393-3.123,6.694-4.514c4.345-2.627,8.914-4.985,12.823-8.262c0.209,1.217,0.368,2.419,0.289,3.692
		c-0.112,1.796-0.545,3.554-0.949,5.301c-0.781,3.379-1.564,6.759-2.345,10.138C145.531,291.85,140.55,292.146,135.58,292.555z
		 M122.596,294.276c-0.981,0.197-1.959,0.412-2.933,0.646c-7.791,0.591-15.574,1.227-23.243,2.83
		c-1.632,0.341-3.256,0.728-4.867,1.164c8.104-2.841,16.603-4.548,25.184-5.014c0.03,0.138,0.118,0.26,0.276,0.3
		c1.76,0.448,3.414,0.333,4.971-0.136C122.188,294.123,122.397,294.19,122.596,294.276z M155.078,268.053
		c0.058-1.697,0.6-3.35,1.194-4.926c1.154-3.06,2.543-6.039,4.074-8.928c0.198-0.374,0.411-0.739,0.615-1.109
		c-0.318,1.264-0.614,2.535-0.924,3.801C159.04,260.974,157.72,264.829,155.078,268.053z M83.647,303.909
		c8.185-3.473,17.161-5.146,25.954-6.145c0.042-0.005,0.084-0.009,0.125-0.013c-6.835,2.144-13.692,4.438-20.301,7.189
		c-6.171,2.569-12.156,5.768-17.127,10.243c-0.149-0.14-0.33-0.246-0.533-0.302C73.232,309.652,78.859,305.94,83.647,303.909z
		 M136.981,315.455c-0.735,5.348-0.76,10.754-0.055,16.107c0.065,0.492,0.141,0.983,0.217,1.474
		c-11.63,3.439-23.554,6.006-35.536,7.714c-3.663,0.522-7.34,0.955-11.024,1.309c-3.279,0.315-6.594,0.678-9.893,0.605
		c-2.753-0.061-5.627-0.466-7.983-1.99c-2.438-1.576-3.625-4.226-4.112-7c-0.552-3.145-0.45-6.585-0.104-9.753
		c0.165-1.509,0.496-3.11,1.214-4.458c0.402,0.345,0.987,0.433,1.428-0.053c4.679-5.163,10.683-8.775,16.992-11.605
		c6.755-3.03,13.867-5.351,20.894-7.66c4.264-1.401,8.552-2.569,12.897-3.475c0.924-0.062,1.848-0.124,2.772-0.177
		c0.342-0.02,0.688-0.215,0.863-0.511c2.553-0.438,5.126-0.79,7.734-1.025c4.883-0.439,9.782-0.743,14.681-1.02
		c1.589,0.347,3.114,0.987,4.465,1.903c-3.808,1.178-7.694,2.65-10.42,5.658C138.628,305.229,137.645,310.63,136.981,315.455z
		 M138.54,322.617c0.045-3.91,0.438-7.811,1.258-11.637c0.73-3.403,1.864-6.839,4.49-9.263c2.731-2.522,6.416-3.74,9.867-4.919
		c0.458-0.156,0.754-0.821,0.313-1.185c-0.702-0.578-1.454-1.078-2.242-1.501c0.003-0.011,0.008-0.02,0.01-0.031
		c0.029-0.129,0.059-0.258,0.088-0.387c2.161-0.119,4.321-0.239,6.48-0.368c9.691-0.581,19.379-1.212,29.07-1.792
		c0.431-0.026,0.724-0.26,0.88-0.563c1.665,0.303,3.321,1.406,4.569,2.37c2.462,1.902,4.67,4.252,6.821,6.491
		c4.475,4.658,8.806,9.702,12.278,15.164c0.882,1.388,1.611,2.84,1.897,4.474c0.305,1.744,0.202,3.572,0.208,5.336
		c0.013,3.56,0.002,7.119-0.034,10.679c-0.073,7.224-0.253,14.446-0.52,21.665c-0.294,7.934-0.713,15.864-1.25,23.785
		c-0.684,0.271-1.424,0.157-2.113-0.227c-1.05-0.585-1.612-1.62-1.928-2.748c-0.361-1.286-0.418-2.629-0.505-3.955
		c-0.106-1.611-0.2-3.223-0.291-4.835c-0.359-6.4-0.551-12.82-1.139-19.202c-0.162-1.76-0.361-3.542-0.355-5.312
		c0.005-1.876,0.054-3.749,0.047-5.625c-0.004-1.069-1.495-1.225-1.819-0.246c-1.638,4.954-3.461,9.857-5.526,14.65
		c-0.638,1.482-1.465,3.466-3.118,4.045c-1.471,0.516-2.86-0.39-3.988-1.256c-1.229-0.944-2.368-2.036-3.671-2.878
		c0.456-0.629,0.796-1.335,1.012-2.084c0.437-0.763,0.716-1.667,0.965-2.374c0.721-2.048,1.477-4.088,2.147-6.154
		c0.323-0.994-1.217-1.659-1.7-0.717c-0.261,0.51-0.442,1.051-0.709,1.56c-0.264,0.504-0.528,1.007-0.793,1.511
		c-0.493,0.94-0.991,1.877-1.49,2.814c-0.429,0.806-0.849,1.616-1.25,2.436c-0.996,0.492-2.445-0.019-3.197-0.917
		c-1.55-1.85-0.384-4.619,0.825-6.297c0.515-0.715-0.189-1.62-0.948-1.651c-1.256-0.052-2.512-0.104-3.768-0.156
		c-3.179-9.902-4.368-20.323-3.681-30.698c0.089-1.351-1.824-1.443-2.234-0.302c-0.886,2.467-1.772,4.935-2.659,7.402
		c-0.392,1.092-0.713,2.26-1.283,3.276c-0.511,0.911-1.298,1.508-2.211,1.984c-2.17,1.131-4.612,1.841-6.897,2.704
		c-2.45,0.926-4.9,1.851-7.35,2.777c-2.234,0.844-4.468,1.688-6.702,2.532c-0.253-0.389-0.774-0.623-1.218-0.474
		c-1.971,0.662-3.954,1.29-5.944,1.899C138.73,329.177,138.502,325.896,138.54,322.617z M142.784,342.365
		c-0.981-0.155-1.627-1.731-1.882-2.493c-0.568-1.698-0.944-3.489-1.283-5.25c1.418-0.441,2.831-0.902,4.244-1.366
		c0.13,0.396,0.435,0.712,0.865,0.734C144.953,336.902,144.277,339.828,142.784,342.365z M158.919,447.885
		c-0.546,0.096-1.092,0.189-1.638,0.284c-2.405,0.231-4.812,0.438-7.22,0.624c8.348-1.363,16.707-2.653,25.079-3.858
		C169.738,445.946,164.332,446.935,158.919,447.885z M213.492,437.546c-17.281,1.933-34.518,4.271-51.703,6.914
		c-4.812,0.74-9.62,1.511-14.424,2.304c3.013-14.472,1.822-29.347,1.749-44.025c-0.037-7.556,0.199-15.176,1.55-22.627
		c0.684-3.772,1.868-7.405,2.666-11.147c0.78-3.659,0.939-7.338-0.613-10.82c-1.273-2.854-4.163-6.075-3.179-9.42
		c0.819-2.784,4.069-4.611,6.846-3.755c0.711,0.219,1.244-0.364,1.319-1.005c0.577-4.934,0.495-9.861-0.156-14.781
		c1.166-0.446,2.332-0.893,3.498-1.339c2.394-0.916,4.897-1.707,7.202-2.835c0.993-0.486,1.936-1.133,2.632-2
		c0.769-0.957,1.187-2.1,1.602-3.241c0.268-0.736,0.535-1.473,0.802-2.209c0.143,8.52,1.614,17.01,4.274,25.106
		c0.157,0.476,0.551,0.777,1.051,0.8c0.9,0.04,1.8,0.081,2.699,0.121c-1.227,2.566-1.46,5.793,0.834,7.814
		c0.936,0.825,2.087,1.265,3.212,1.318c-0.17,0.336-0.334,0.68-0.402,1.036c-0.039,0.202,0.069,0.374,0.222,0.449
		c0.086,0.225,0.247,0.422,0.526,0.545c3.458,1.519,5.937,5.961,10.164,5.316c0.362-0.055,0.698-0.163,1.023-0.292
		c1.804,4.29,3.894,8.455,5.93,12.638c1.074,2.208,2.17,4.405,3.267,6.602c0.562,1.124,1.358,2.782,2.629,3.187
		c-0.025,0.119-0.05,0.239-0.075,0.358c-0.11,0.527,0.237,1.069,0.812,1.065c1.39-0.007,2.357,1.114,3.132,2.141
		c0.936,1.24,1.785,2.557,2.621,3.866c1.675,2.626,3.219,5.336,4.678,8.087c1.389,2.62,2.693,5.282,3.958,7.963
		c-3.051,1.478-5.936,3.288-8.562,5.471c-2.713,2.255-5.664,5.457-5.245,9.276c0.23,2.097,1.515,3.755,2.711,5.41
		c1.334,1.847,2.669,3.693,4.004,5.539c1.175,1.625,2.352,3.248,3.529,4.871C218.013,436.677,215.752,437.11,213.492,437.546z
		 M329.564,440.007c-2.206,3.23-4.52,6.389-6.948,9.456c-2.382,3.009-4.799,6.106-7.562,8.778c-2.704,2.616-5.952,4.059-9.596,4.862
		c-3.911,0.862-7.951,1.237-11.927,1.669c-8.376,0.91-16.812,1.439-25.238,1.129c-4.137-0.152-8.272-0.498-12.366-1.122
		c-3.789-0.578-7.821-1.186-11.313-2.847c-3.435-1.634-5.765-4.469-8.003-7.45c-2.549-3.397-5.078-6.809-7.604-10.224
		c-5.099-6.892-10.22-13.778-15.202-20.755c-0.21-0.294-0.409-0.594-0.595-0.897c0.69,0.866,1.606,1.562,2.551,2.123
		c3.48,2.068,7.518,3.364,11.422,4.351c2.841,0.719,5.726,1.246,8.621,1.709c0.067,0.123,0.132,0.246,0.2,0.369
		c2.781,5.012,5.802,10.481,10.339,14.133c2.295,1.848,4.902,3.091,7.848,3.419c3.197,0.355,6.548-0.434,9.51-1.602
		c1.355-0.535,2.685-1.211,3.608-2.375c0.956-1.207,1.273-2.734,1.289-4.246c0.022-2.108-0.393-4.217-1.082-6.214
		c8.664,0.526,17.351,0.702,26.029,0.525c8.303-0.169,16.681-0.477,24.912-1.639c5.813-0.821,11.659-2.213,16.945-4.809
		c0.266,0.286,0.684,0.39,1.094,0.324c0.059-0.01,0.119-0.02,0.178-0.029C334.45,432.52,332.085,436.315,329.564,440.007z
		 M456.384,403.37c-4.329,1.037-8.668,2.027-13.013,2.994c-8.59,1.912-17.192,3.766-25.809,5.552
		c-17.336,3.593-34.725,6.976-52.186,9.908c-8.132,1.365-16.276,2.664-24.419,3.959c0.247-0.46,0.503-0.915,0.746-1.377
		c0.292-0.23,0.571-0.476,0.856-0.715c15.945-2.603,31.81-5.775,47.681-8.791c16.011-3.043,32.024-6.078,48.032-9.137
		c4.478-0.855,8.956-1.711,13.434-2.567c3.422-0.654,6.87-1.24,10.286-1.948C460.393,402.392,458.292,402.913,456.384,403.37z"/>
</g>
</svg>
